<svg xmlns="http://www.w3.org/2000/svg" viewBox="0 0 274 632"><defs><style>.cls-1{fill:#2b2b2b;}.cls-2{fill:#8cc63f;}.cls-3{fill:#4198c4;opacity:0.3;}.cls-4{fill:#73bc00;}.cls-5{fill:#ccc;}</style></defs><title>자산 1</title><g id="레이어_2" data-name="레이어 2"><g id="레이어_1-2" data-name="레이어 1"><rect class="cls-1" x="47" y="149" width="176" height="8"/><rect class="cls-2" y="149" width="15" height="335"/><polygon class="cls-2" points="274 142.79 274 231 259 231 259 149 156 15 0 15 0 0 162.21 0 274 142.79"/><rect class="cls-2" y="617" width="274" height="15"/><rect class="cls-1" x="15" y="456" width="18" height="8"/><rect class="cls-1" x="113" y="456" width="18" height="8"/><polygon class="cls-2" points="131 157 131 474 131 476 131 624 139 624 139 476 139 474 139 157 131 157"/><circle class="cls-2" cx="135" cy="153" r="7.07"/><rect class="cls-3" y="15" width="7" height="124"/><rect class="cls-3" y="484" width="7" height="124"/><rect class="cls-1" x="77" y="420" width="386" height="8" transform="translate(694 154) rotate(90)"/><path class="cls-2" d="M131,544.67S129.3,617,66.82,617H131Z"/><path class="cls-4" d="M121.82,333.06h-98a49,49,0,0,0,98,0Z"/><path class="cls-4" d="M121.82,360.06h-98a49,49,0,0,0,98,0Z"/><path class="cls-4" d="M121.82,387.06h-98a49,49,0,0,0,98,0Z"/><path class="cls-4" d="M121.82,414.06h-98a49,49,0,0,0,98,0Z"/><path class="cls-5" d="M250.65,482.4h-98a49,49,0,0,0,98,0Z"/><path class="cls-5" d="M250.65,506.9h-98a49,49,0,0,0,98,0Z"/><path class="cls-5" d="M250.65,531.4h-98a49,49,0,0,0,98,0Z"/><path class="cls-5" d="M250.65,555.9h-98a49,49,0,0,0,98,0Z"/><circle class="cls-4" cx="72.82" cy="310.5" r="5.05"/><circle class="cls-4" cx="72.82" cy="285.45" r="5.05"/><circle class="cls-4" cx="72.82" cy="260.39" r="5.05"/><circle class="cls-5" cx="201.65" cy="460.95" r="5.05"/><circle class="cls-5" cx="201.65" cy="435.89" r="5.05"/><circle class="cls-5" cx="201.65" cy="410.84" r="5.05"/></g></g></svg>